#define close_width 8
#define close_height 8
static unsigned char close_bits[] = {
   0x42, 0xe7, 0x72, 0x38, 0x1c, 0x4e, 0xe7, 0x42 };
